<?xml version="1.0" encoding="UTF-8" standalone="no"?><svg xmlns="http://www.w3.org/2000/svg" xmlns:xlink="http://www.w3.org/1999/xlink" contentScriptType="application/ecmascript" contentStyleType="text/css" height="327px" preserveAspectRatio="none" style="width:469px;height:327px;" version="1.1" viewBox="0 0 469 327" width="469px" zoomAndPan="magnify"><defs><filter height="300%" id="favulhgd7th0k" width="300%" x="-1" y="-1"><feGaussianBlur result="blurOut" stdDeviation="2.0"/><feColorMatrix in="blurOut" result="blurOut2" type="matrix" values="0 0 0 0 0 0 0 0 0 0 0 0 0 0 0 0 0 0 .4 0"/><feOffset dx="4.0" dy="4.0" in="blurOut2" result="blurOut3"/><feBlend in="SourceGraphic" in2="blurOut3" mode="normal"/></filter></defs><g><rect fill="#FFFFFF" filter="url(#favulhgd7th0k)" height="222.6641" style="stroke: #A9A9A9; stroke-width: 1.0;" width="10" x="44" y="48.2969"/><rect fill="#FFFFFF" filter="url(#favulhgd7th0k)" height="201.6641" style="stroke: #A9A9A9; stroke-width: 1.0;" width="10" x="161" y="69.2969"/><rect fill="#FFFFFF" filter="url(#favulhgd7th0k)" height="57.1328" style="stroke: #A9A9A9; stroke-width: 1.0;" width="10" x="271" y="98.4297"/><rect fill="#FFFFFF" filter="url(#favulhgd7th0k)" height="14" style="stroke: #A9A9A9; stroke-width: 1.0;" width="10" x="325.5" y="112.5625"/><rect fill="#FFFFFF" filter="url(#favulhgd7th0k)" height="57.1328" style="stroke: #A9A9A9; stroke-width: 1.0;" width="10" x="380" y="184.6953"/><rect fill="#FFFFFF" filter="url(#favulhgd7th0k)" height="14" style="stroke: #A9A9A9; stroke-width: 1.0;" width="10" x="434.5" y="198.8281"/><line style="stroke: #A9A9A9; stroke-width: 1.0; stroke-dasharray: 5.0,5.0;" x1="49" x2="49" y1="38.2969" y2="289.0938"/><line style="stroke: #A9A9A9; stroke-width: 1.0; stroke-dasharray: 5.0,5.0;" x1="166" x2="166" y1="38.2969" y2="289.0938"/><line style="stroke: #A9A9A9; stroke-width: 1.0; stroke-dasharray: 5.0,5.0;" x1="276" x2="276" y1="38.2969" y2="289.0938"/><line style="stroke: #A9A9A9; stroke-width: 1.0; stroke-dasharray: 5.0,5.0;" x1="330" x2="330" y1="38.2969" y2="289.0938"/><line style="stroke: #A9A9A9; stroke-width: 1.0; stroke-dasharray: 5.0,5.0;" x1="385" x2="385" y1="38.2969" y2="289.0938"/><line style="stroke: #A9A9A9; stroke-width: 1.0; stroke-dasharray: 5.0,5.0;" x1="439" x2="439" y1="38.2969" y2="289.0938"/><rect fill="#D3D3D3" filter="url(#favulhgd7th0k)" height="30.2969" style="stroke: #000000; stroke-width: 1.5;" width="78" x="8" y="3"/><text fill="#000000" font-family="sans-serif" font-size="14" lengthAdjust="spacingAndGlyphs" textLength="64" x="15" y="22.9951">test_func</text><rect fill="#D3D3D3" filter="url(#favulhgd7th0k)" height="30.2969" style="stroke: #000000; stroke-width: 1.5;" width="78" x="8" y="288.0938"/><text fill="#000000" font-family="sans-serif" font-size="14" lengthAdjust="spacingAndGlyphs" textLength="64" x="15" y="308.0889">test_func</text><rect fill="#D3D3D3" filter="url(#favulhgd7th0k)" height="30.2969" style="stroke: #000000; stroke-width: 1.5;" width="44" x="142" y="3"/><text fill="#000000" font-family="sans-serif" font-size="14" lengthAdjust="spacingAndGlyphs" textLength="30" x="149" y="22.9951">func</text><rect fill="#D3D3D3" filter="url(#favulhgd7th0k)" height="30.2969" style="stroke: #000000; stroke-width: 1.5;" width="44" x="142" y="288.0938"/><text fill="#000000" font-family="sans-serif" font-size="14" lengthAdjust="spacingAndGlyphs" textLength="30" x="149" y="308.0889">func</text><rect fill="#D3D3D3" filter="url(#favulhgd7th0k)" height="30.2969" style="stroke: #000000; stroke-width: 1.5;" width="36" x="256" y="3"/><text fill="#000000" font-family="sans-serif" font-size="14" lengthAdjust="spacingAndGlyphs" textLength="22" x="263" y="22.9951">foo</text><rect fill="#D3D3D3" filter="url(#favulhgd7th0k)" height="30.2969" style="stroke: #000000; stroke-width: 1.5;" width="36" x="256" y="288.0938"/><text fill="#000000" font-family="sans-serif" font-size="14" lengthAdjust="spacingAndGlyphs" textLength="22" x="263" y="308.0889">foo</text><rect fill="#D3D3D3" filter="url(#favulhgd7th0k)" height="30.2969" style="stroke: #000000; stroke-width: 1.5;" width="45" x="306" y="3"/><text fill="#000000" font-family="sans-serif" font-size="14" lengthAdjust="spacingAndGlyphs" textLength="31" x="313" y="22.9951">foo2</text><rect fill="#D3D3D3" filter="url(#favulhgd7th0k)" height="30.2969" style="stroke: #000000; stroke-width: 1.5;" width="45" x="306" y="288.0938"/><text fill="#000000" font-family="sans-serif" font-size="14" lengthAdjust="spacingAndGlyphs" textLength="31" x="313" y="308.0889">foo2</text><rect fill="#D3D3D3" filter="url(#favulhgd7th0k)" height="30.2969" style="stroke: #000000; stroke-width: 1.5;" width="36" x="365" y="3"/><text fill="#000000" font-family="sans-serif" font-size="14" lengthAdjust="spacingAndGlyphs" textLength="22" x="372" y="22.9951">bar</text><rect fill="#D3D3D3" filter="url(#favulhgd7th0k)" height="30.2969" style="stroke: #000000; stroke-width: 1.5;" width="36" x="365" y="288.0938"/><text fill="#000000" font-family="sans-serif" font-size="14" lengthAdjust="spacingAndGlyphs" textLength="22" x="372" y="308.0889">bar</text><rect fill="#D3D3D3" filter="url(#favulhgd7th0k)" height="30.2969" style="stroke: #000000; stroke-width: 1.5;" width="45" x="415" y="3"/><text fill="#000000" font-family="sans-serif" font-size="14" lengthAdjust="spacingAndGlyphs" textLength="31" x="422" y="22.9951">bar2</text><rect fill="#D3D3D3" filter="url(#favulhgd7th0k)" height="30.2969" style="stroke: #000000; stroke-width: 1.5;" width="45" x="415" y="288.0938"/><text fill="#000000" font-family="sans-serif" font-size="14" lengthAdjust="spacingAndGlyphs" textLength="31" x="422" y="308.0889">bar2</text><rect fill="#FFFFFF" filter="url(#favulhgd7th0k)" height="222.6641" style="stroke: #A9A9A9; stroke-width: 1.0;" width="10" x="44" y="48.2969"/><rect fill="#FFFFFF" filter="url(#favulhgd7th0k)" height="201.6641" style="stroke: #A9A9A9; stroke-width: 1.0;" width="10" x="161" y="69.2969"/><rect fill="#FFFFFF" filter="url(#favulhgd7th0k)" height="57.1328" style="stroke: #A9A9A9; stroke-width: 1.0;" width="10" x="271" y="98.4297"/><rect fill="#FFFFFF" filter="url(#favulhgd7th0k)" height="14" style="stroke: #A9A9A9; stroke-width: 1.0;" width="10" x="325.5" y="112.5625"/><rect fill="#FFFFFF" filter="url(#favulhgd7th0k)" height="57.1328" style="stroke: #A9A9A9; stroke-width: 1.0;" width="10" x="380" y="184.6953"/><rect fill="#FFFFFF" filter="url(#favulhgd7th0k)" height="14" style="stroke: #A9A9A9; stroke-width: 1.0;" width="10" x="434.5" y="198.8281"/><polygon fill="#000000" points="149,65.2969,159,69.2969,149,73.2969,153,69.2969" style="stroke: #000000; stroke-width: 1.0;"/><line style="stroke: #000000; stroke-width: 1.0;" x1="54" x2="155" y1="69.2969" y2="69.2969"/><text fill="#000000" font-family="sans-serif" font-size="13" lengthAdjust="spacingAndGlyphs" textLength="67" x="61" y="64.3638">activate ct</text><polygon fill="#000000" points="259,94.4297,269,98.4297,259,102.4297,263,98.4297" style="stroke: #000000; stroke-width: 1.0;"/><line style="stroke: #000000; stroke-width: 1.0;" x1="171" x2="265" y1="98.4297" y2="98.4297"/><text fill="#000000" font-family="sans-serif" font-size="13" lengthAdjust="spacingAndGlyphs" textLength="76" x="178" y="93.4966">traced by ct</text><polygon fill="#000000" points="313.5,108.5625,323.5,112.5625,313.5,116.5625,317.5,112.5625" style="stroke: #000000; stroke-width: 1.0;"/><line style="stroke: #000000; stroke-width: 1.0;" x1="281" x2="319.5" y1="112.5625" y2="112.5625"/><polygon fill="#000000" points="292,122.5625,282,126.5625,292,130.5625,288,126.5625" style="stroke: #000000; stroke-width: 1.0;"/><line style="stroke: #000000; stroke-width: 1.0;" x1="286" x2="329.5" y1="126.5625" y2="126.5625"/><polygon fill="#000000" points="182,151.5625,172,155.5625,182,159.5625,178,155.5625" style="stroke: #000000; stroke-width: 1.0;"/><line style="stroke: #000000; stroke-width: 1.0;" x1="176" x2="275" y1="155.5625" y2="155.5625"/><text fill="#000000" font-family="sans-serif" font-size="13" lengthAdjust="spacingAndGlyphs" textLength="76" x="188" y="150.6294">traced by ct</text><polygon fill="#000000" points="368,180.6953,378,184.6953,368,188.6953,372,184.6953" style="stroke: #000000; stroke-width: 1.0;"/><line style="stroke: #000000; stroke-width: 1.0;" x1="171" x2="374" y1="184.6953" y2="184.6953"/><text fill="#000000" font-family="sans-serif" font-size="13" lengthAdjust="spacingAndGlyphs" textLength="76" x="178" y="179.7622">traced by ct</text><polygon fill="#000000" points="422.5,194.8281,432.5,198.8281,422.5,202.8281,426.5,198.8281" style="stroke: #000000; stroke-width: 1.0;"/><line style="stroke: #000000; stroke-width: 1.0;" x1="390" x2="428.5" y1="198.8281" y2="198.8281"/><polygon fill="#000000" points="401,208.8281,391,212.8281,401,216.8281,397,212.8281" style="stroke: #000000; stroke-width: 1.0;"/><line style="stroke: #000000; stroke-width: 1.0;" x1="395" x2="438.5" y1="212.8281" y2="212.8281"/><polygon fill="#000000" points="182,237.8281,172,241.8281,182,245.8281,178,241.8281" style="stroke: #000000; stroke-width: 1.0;"/><line style="stroke: #000000; stroke-width: 1.0;" x1="176" x2="384" y1="241.8281" y2="241.8281"/><text fill="#000000" font-family="sans-serif" font-size="13" lengthAdjust="spacingAndGlyphs" textLength="76" x="188" y="236.895">traced by ct</text><polygon fill="#000000" points="60,266.9609,50,270.9609,60,274.9609,56,270.9609" style="stroke: #000000; stroke-width: 1.0;"/><line style="stroke: #000000; stroke-width: 1.0;" x1="54" x2="165" y1="270.9609" y2="270.9609"/><text fill="#000000" font-family="sans-serif" font-size="13" lengthAdjust="spacingAndGlyphs" textLength="83" x="66" y="266.0278">deactivate ct</text><!--
@startuml
skinparam backgroundColor #FFFFFF

skinparam sequence {
    ActorBorderColor DeepSkyBlue
    ArrowColor black
    
    LifeLineBorderColor DarkGray
    ParticipantBackgroundColor  LightGray
    ParticipantBorderColor black
    BoxBorderColor black
}


activate test_func

test_func->func : activate ct

activate func 

func->foo : traced by ct
activate foo
  foo->foo2
  activate foo2
  foo<-foo2
  deactivate foo2
func<- foo : traced by ct
deactivate foo

func->bar : traced by ct
  activate bar
  bar->bar2
  activate bar2
  bar<-bar2
  deactivate bar2
func<-bar : traced by ct
deactivate bar

test_func<-func : deactivate ct
deactivate func

deactivate test_func
@enduml

PlantUML version 1.2017.13(Wed May 10 16:52:33 UTC 2017)
(GPL source distribution)
Java Runtime: Java(TM) SE Runtime Environment
JVM: Java HotSpot(TM) 64-Bit Server VM
Java Version: 1.7.0_25-b15
Operating System: Linux
Default Encoding: UTF-8
Language: en
Country: US
--></g></svg>