<?xml version="1.0" encoding="UTF-8" standalone="no"?><svg xmlns="http://www.w3.org/2000/svg" xmlns:xlink="http://www.w3.org/1999/xlink" contentScriptType="application/ecmascript" contentStyleType="text/css" height="970px" preserveAspectRatio="none" style="width:550px;height:970px;" version="1.1" viewBox="0 0 550 970" width="550px" zoomAndPan="magnify"><defs><filter height="300%" id="f14i2153akxou5" width="300%" x="-1" y="-1"><feGaussianBlur result="blurOut" stdDeviation="2.0"/><feColorMatrix in="blurOut" result="blurOut2" type="matrix" values="0 0 0 0 0 0 0 0 0 0 0 0 0 0 0 0 0 0 .4 0"/><feOffset dx="4.0" dy="4.0" in="blurOut2" result="blurOut3"/><feBlend in="SourceGraphic" in2="blurOut3" mode="normal"/></filter></defs><g><rect fill="#FFFFFF" filter="url(#f14i2153akxou5)" height="865.8516" style="stroke: #A9A9A9; stroke-width: 1.0;" width="10" x="44" y="48.2969"/><rect fill="#FFFFFF" filter="url(#f14i2153akxou5)" height="145.6641" style="stroke: #A9A9A9; stroke-width: 1.0;" width="10" x="231" y="69.2969"/><rect fill="#FFFFFF" filter="url(#f14i2153akxou5)" height="145.6641" style="stroke: #A9A9A9; stroke-width: 1.0;" width="10" x="231" y="244.0938"/><rect fill="#FFFFFF" filter="url(#f14i2153akxou5)" height="145.6641" style="stroke: #A9A9A9; stroke-width: 1.0;" width="10" x="231" y="418.8906"/><rect fill="#FFFFFF" filter="url(#f14i2153akxou5)" height="145.6641" style="stroke: #A9A9A9; stroke-width: 1.0;" width="10" x="231" y="593.6875"/><rect fill="#FFFFFF" filter="url(#f14i2153akxou5)" height="145.6641" style="stroke: #A9A9A9; stroke-width: 1.0;" width="10" x="231" y="768.4844"/><rect fill="#FFFFFF" filter="url(#f14i2153akxou5)" height="29.1328" style="stroke: #A9A9A9; stroke-width: 1.0;" width="10" x="411" y="98.4297"/><rect fill="#FFFFFF" filter="url(#f14i2153akxou5)" height="29.1328" style="stroke: #A9A9A9; stroke-width: 1.0;" width="10" x="411" y="273.2266"/><rect fill="#FFFFFF" filter="url(#f14i2153akxou5)" height="29.1328" style="stroke: #A9A9A9; stroke-width: 1.0;" width="10" x="411" y="448.0234"/><rect fill="#FFFFFF" filter="url(#f14i2153akxou5)" height="29.1328" style="stroke: #A9A9A9; stroke-width: 1.0;" width="10" x="411" y="622.8203"/><rect fill="#FFFFFF" filter="url(#f14i2153akxou5)" height="29.1328" style="stroke: #A9A9A9; stroke-width: 1.0;" width="10" x="411" y="797.6172"/><rect fill="#FFFFFF" filter="url(#f14i2153akxou5)" height="29.1328" style="stroke: #A9A9A9; stroke-width: 1.0;" width="10" x="461" y="156.6953"/><rect fill="#FFFFFF" filter="url(#f14i2153akxou5)" height="29.1328" style="stroke: #A9A9A9; stroke-width: 1.0;" width="10" x="461" y="331.4922"/><rect fill="#FFFFFF" filter="url(#f14i2153akxou5)" height="29.1328" style="stroke: #A9A9A9; stroke-width: 1.0;" width="10" x="461" y="855.8828"/><rect fill="#FFFFFF" filter="url(#f14i2153akxou5)" height="29.1328" style="stroke: #A9A9A9; stroke-width: 1.0;" width="10" x="515.5" y="506.2891"/><rect fill="#FFFFFF" filter="url(#f14i2153akxou5)" height="29.1328" style="stroke: #A9A9A9; stroke-width: 1.0;" width="10" x="515.5" y="681.0859"/><line style="stroke: #A9A9A9; stroke-width: 1.0; stroke-dasharray: 5.0,5.0;" x1="49" x2="49" y1="38.2969" y2="932.2813"/><line style="stroke: #A9A9A9; stroke-width: 1.0; stroke-dasharray: 5.0,5.0;" x1="236" x2="236" y1="38.2969" y2="932.2813"/><line style="stroke: #A9A9A9; stroke-width: 1.0; stroke-dasharray: 5.0,5.0;" x1="416" x2="416" y1="38.2969" y2="932.2813"/><line style="stroke: #A9A9A9; stroke-width: 1.0; stroke-dasharray: 5.0,5.0;" x1="466" x2="466" y1="38.2969" y2="932.2813"/><line style="stroke: #A9A9A9; stroke-width: 1.0; stroke-dasharray: 5.0,5.0;" x1="520" x2="520" y1="38.2969" y2="932.2813"/><rect fill="#D3D3D3" filter="url(#f14i2153akxou5)" height="30.2969" style="stroke: #000000; stroke-width: 1.5;" width="78" x="8" y="3"/><text fill="#000000" font-family="sans-serif" font-size="14" lengthAdjust="spacingAndGlyphs" textLength="64" x="15" y="22.9951">test_func</text><rect fill="#D3D3D3" filter="url(#f14i2153akxou5)" height="30.2969" style="stroke: #000000; stroke-width: 1.5;" width="78" x="8" y="931.2813"/><text fill="#000000" font-family="sans-serif" font-size="14" lengthAdjust="spacingAndGlyphs" textLength="64" x="15" y="951.2764">test_func</text><rect fill="#D3D3D3" filter="url(#f14i2153akxou5)" height="30.2969" style="stroke: #000000; stroke-width: 1.5;" width="44" x="212" y="3"/><text fill="#000000" font-family="sans-serif" font-size="14" lengthAdjust="spacingAndGlyphs" textLength="30" x="219" y="22.9951">func</text><rect fill="#D3D3D3" filter="url(#f14i2153akxou5)" height="30.2969" style="stroke: #000000; stroke-width: 1.5;" width="44" x="212" y="931.2813"/><text fill="#000000" font-family="sans-serif" font-size="14" lengthAdjust="spacingAndGlyphs" textLength="30" x="219" y="951.2764">func</text><rect fill="#D3D3D3" filter="url(#f14i2153akxou5)" height="30.2969" style="stroke: #000000; stroke-width: 1.5;" width="36" x="396" y="3"/><text fill="#000000" font-family="sans-serif" font-size="14" lengthAdjust="spacingAndGlyphs" textLength="22" x="403" y="22.9951">foo</text><rect fill="#D3D3D3" filter="url(#f14i2153akxou5)" height="30.2969" style="stroke: #000000; stroke-width: 1.5;" width="36" x="396" y="931.2813"/><text fill="#000000" font-family="sans-serif" font-size="14" lengthAdjust="spacingAndGlyphs" textLength="22" x="403" y="951.2764">foo</text><rect fill="#D3D3D3" filter="url(#f14i2153akxou5)" height="30.2969" style="stroke: #000000; stroke-width: 1.5;" width="36" x="446" y="3"/><text fill="#000000" font-family="sans-serif" font-size="14" lengthAdjust="spacingAndGlyphs" textLength="22" x="453" y="22.9951">bar</text><rect fill="#D3D3D3" filter="url(#f14i2153akxou5)" height="30.2969" style="stroke: #000000; stroke-width: 1.5;" width="36" x="446" y="931.2813"/><text fill="#000000" font-family="sans-serif" font-size="14" lengthAdjust="spacingAndGlyphs" textLength="22" x="453" y="951.2764">bar</text><rect fill="#D3D3D3" filter="url(#f14i2153akxou5)" height="30.2969" style="stroke: #000000; stroke-width: 1.5;" width="45" x="496" y="3"/><text fill="#000000" font-family="sans-serif" font-size="14" lengthAdjust="spacingAndGlyphs" textLength="31" x="503" y="22.9951">bar2</text><rect fill="#D3D3D3" filter="url(#f14i2153akxou5)" height="30.2969" style="stroke: #000000; stroke-width: 1.5;" width="45" x="496" y="931.2813"/><text fill="#000000" font-family="sans-serif" font-size="14" lengthAdjust="spacingAndGlyphs" textLength="31" x="503" y="951.2764">bar2</text><rect fill="#FFFFFF" filter="url(#f14i2153akxou5)" height="865.8516" style="stroke: #A9A9A9; stroke-width: 1.0;" width="10" x="44" y="48.2969"/><rect fill="#FFFFFF" filter="url(#f14i2153akxou5)" height="145.6641" style="stroke: #A9A9A9; stroke-width: 1.0;" width="10" x="231" y="69.2969"/><rect fill="#FFFFFF" filter="url(#f14i2153akxou5)" height="145.6641" style="stroke: #A9A9A9; stroke-width: 1.0;" width="10" x="231" y="244.0938"/><rect fill="#FFFFFF" filter="url(#f14i2153akxou5)" height="145.6641" style="stroke: #A9A9A9; stroke-width: 1.0;" width="10" x="231" y="418.8906"/><rect fill="#FFFFFF" filter="url(#f14i2153akxou5)" height="145.6641" style="stroke: #A9A9A9; stroke-width: 1.0;" width="10" x="231" y="593.6875"/><rect fill="#FFFFFF" filter="url(#f14i2153akxou5)" height="145.6641" style="stroke: #A9A9A9; stroke-width: 1.0;" width="10" x="231" y="768.4844"/><rect fill="#FFFFFF" filter="url(#f14i2153akxou5)" height="29.1328" style="stroke: #A9A9A9; stroke-width: 1.0;" width="10" x="411" y="98.4297"/><rect fill="#FFFFFF" filter="url(#f14i2153akxou5)" height="29.1328" style="stroke: #A9A9A9; stroke-width: 1.0;" width="10" x="411" y="273.2266"/><rect fill="#FFFFFF" filter="url(#f14i2153akxou5)" height="29.1328" style="stroke: #A9A9A9; stroke-width: 1.0;" width="10" x="411" y="448.0234"/><rect fill="#FFFFFF" filter="url(#f14i2153akxou5)" height="29.1328" style="stroke: #A9A9A9; stroke-width: 1.0;" width="10" x="411" y="622.8203"/><rect fill="#FFFFFF" filter="url(#f14i2153akxou5)" height="29.1328" style="stroke: #A9A9A9; stroke-width: 1.0;" width="10" x="411" y="797.6172"/><rect fill="#FFFFFF" filter="url(#f14i2153akxou5)" height="29.1328" style="stroke: #A9A9A9; stroke-width: 1.0;" width="10" x="461" y="156.6953"/><rect fill="#FFFFFF" filter="url(#f14i2153akxou5)" height="29.1328" style="stroke: #A9A9A9; stroke-width: 1.0;" width="10" x="461" y="331.4922"/><rect fill="#FFFFFF" filter="url(#f14i2153akxou5)" height="29.1328" style="stroke: #A9A9A9; stroke-width: 1.0;" width="10" x="461" y="855.8828"/><rect fill="#FFFFFF" filter="url(#f14i2153akxou5)" height="29.1328" style="stroke: #A9A9A9; stroke-width: 1.0;" width="10" x="515.5" y="506.2891"/><rect fill="#FFFFFF" filter="url(#f14i2153akxou5)" height="29.1328" style="stroke: #A9A9A9; stroke-width: 1.0;" width="10" x="515.5" y="681.0859"/><polygon fill="#000000" points="219,65.2969,229,69.2969,219,73.2969,223,69.2969" style="stroke: #000000; stroke-width: 1.0;"/><line style="stroke: #000000; stroke-width: 1.0;" x1="54" x2="225" y1="69.2969" y2="69.2969"/><text fill="#000000" font-family="sans-serif" font-size="13" lengthAdjust="spacingAndGlyphs" textLength="124" x="61" y="64.3638">activate ct, ct_start</text><polygon fill="#000000" points="399,94.4297,409,98.4297,399,102.4297,403,98.4297" style="stroke: #000000; stroke-width: 1.0;"/><line style="stroke: #000000; stroke-width: 1.0;" x1="241" x2="405" y1="98.4297" y2="98.4297"/><text fill="#000000" font-family="sans-serif" font-size="13" lengthAdjust="spacingAndGlyphs" textLength="133" x="248" y="93.4966">traced by ct, ct_start</text><polygon fill="#000000" points="252,123.5625,242,127.5625,252,131.5625,248,127.5625" style="stroke: #000000; stroke-width: 1.0;"/><line style="stroke: #000000; stroke-width: 1.0;" x1="246" x2="415" y1="127.5625" y2="127.5625"/><text fill="#000000" font-family="sans-serif" font-size="13" lengthAdjust="spacingAndGlyphs" textLength="133" x="258" y="122.6294">traced by ct, ct_start</text><polygon fill="#000000" points="449,152.6953,459,156.6953,449,160.6953,453,156.6953" style="stroke: #000000; stroke-width: 1.0;"/><line style="stroke: #000000; stroke-width: 1.0;" x1="241" x2="455" y1="156.6953" y2="156.6953"/><text fill="#000000" font-family="sans-serif" font-size="13" lengthAdjust="spacingAndGlyphs" textLength="133" x="248" y="151.7622">traced by ct, ct_start</text><polygon fill="#000000" points="252,181.8281,242,185.8281,252,189.8281,248,185.8281" style="stroke: #000000; stroke-width: 1.0;"/><line style="stroke: #000000; stroke-width: 1.0;" x1="246" x2="465" y1="185.8281" y2="185.8281"/><text fill="#000000" font-family="sans-serif" font-size="13" lengthAdjust="spacingAndGlyphs" textLength="133" x="258" y="180.895">traced by ct, ct_start</text><polygon fill="#000000" points="65,210.9609,55,214.9609,65,218.9609,61,214.9609" style="stroke: #000000; stroke-width: 1.0;"/><line style="stroke: #000000; stroke-width: 1.0;" x1="59" x2="235" y1="214.9609" y2="214.9609"/><text fill="#000000" font-family="sans-serif" font-size="13" lengthAdjust="spacingAndGlyphs" textLength="140" x="71" y="210.0278">deactivate ct, ct_start</text><polygon fill="#000000" points="219,240.0938,229,244.0938,219,248.0938,223,244.0938" style="stroke: #000000; stroke-width: 1.0;"/><line style="stroke: #000000; stroke-width: 1.0;" x1="54" x2="225" y1="244.0938" y2="244.0938"/><text fill="#000000" font-family="sans-serif" font-size="13" lengthAdjust="spacingAndGlyphs" textLength="124" x="61" y="239.1606">activate ct, ct_start</text><polygon fill="#000000" points="399,269.2266,409,273.2266,399,277.2266,403,273.2266" style="stroke: #000000; stroke-width: 1.0;"/><line style="stroke: #000000; stroke-width: 1.0;" x1="241" x2="405" y1="273.2266" y2="273.2266"/><text fill="#000000" font-family="sans-serif" font-size="13" lengthAdjust="spacingAndGlyphs" textLength="133" x="248" y="268.2935">traced by ct, ct_start</text><polygon fill="#000000" points="252,298.3594,242,302.3594,252,306.3594,248,302.3594" style="stroke: #000000; stroke-width: 1.0;"/><line style="stroke: #000000; stroke-width: 1.0;" x1="246" x2="415" y1="302.3594" y2="302.3594"/><text fill="#000000" font-family="sans-serif" font-size="13" lengthAdjust="spacingAndGlyphs" textLength="133" x="258" y="297.4263">traced by ct, ct_start</text><polygon fill="#000000" points="449,327.4922,459,331.4922,449,335.4922,453,331.4922" style="stroke: #000000; stroke-width: 1.0;"/><line style="stroke: #000000; stroke-width: 1.0;" x1="241" x2="455" y1="331.4922" y2="331.4922"/><text fill="#000000" font-family="sans-serif" font-size="13" lengthAdjust="spacingAndGlyphs" textLength="133" x="248" y="326.5591">traced by ct, ct_start</text><polygon fill="#000000" points="252,356.625,242,360.625,252,364.625,248,360.625" style="stroke: #000000; stroke-width: 1.0;"/><line style="stroke: #000000; stroke-width: 1.0;" x1="246" x2="465" y1="360.625" y2="360.625"/><text fill="#000000" font-family="sans-serif" font-size="13" lengthAdjust="spacingAndGlyphs" textLength="133" x="258" y="355.6919">traced by ct, ct_start</text><polygon fill="#000000" points="65,385.7578,55,389.7578,65,393.7578,61,389.7578" style="stroke: #000000; stroke-width: 1.0;"/><line style="stroke: #000000; stroke-width: 1.0;" x1="59" x2="235" y1="389.7578" y2="389.7578"/><text fill="#000000" font-family="sans-serif" font-size="13" lengthAdjust="spacingAndGlyphs" textLength="140" x="71" y="384.8247">deactivate ct, ct_start</text><polygon fill="#000000" points="219,414.8906,229,418.8906,219,422.8906,223,418.8906" style="stroke: #000000; stroke-width: 1.0;"/><line style="stroke: #000000; stroke-width: 1.0;" x1="54" x2="225" y1="418.8906" y2="418.8906"/><text fill="#000000" font-family="sans-serif" font-size="13" lengthAdjust="spacingAndGlyphs" textLength="137" x="61" y="413.9575">activate ct, ct_middle</text><polygon fill="#000000" points="399,444.0234,409,448.0234,399,452.0234,403,448.0234" style="stroke: #000000; stroke-width: 1.0;"/><line style="stroke: #000000; stroke-width: 1.0;" x1="241" x2="405" y1="448.0234" y2="448.0234"/><text fill="#000000" font-family="sans-serif" font-size="13" lengthAdjust="spacingAndGlyphs" textLength="146" x="248" y="443.0903">traced by ct, ct_middle</text><polygon fill="#000000" points="252,473.1563,242,477.1563,252,481.1563,248,477.1563" style="stroke: #000000; stroke-width: 1.0;"/><line style="stroke: #000000; stroke-width: 1.0;" x1="246" x2="415" y1="477.1563" y2="477.1563"/><text fill="#000000" font-family="sans-serif" font-size="13" lengthAdjust="spacingAndGlyphs" textLength="146" x="258" y="472.2231">traced by ct, ct_middle</text><polygon fill="#000000" points="503.5,502.2891,513.5,506.2891,503.5,510.2891,507.5,506.2891" style="stroke: #000000; stroke-width: 1.0;"/><line style="stroke: #000000; stroke-width: 1.0;" x1="241" x2="509.5" y1="506.2891" y2="506.2891"/><text fill="#000000" font-family="sans-serif" font-size="13" lengthAdjust="spacingAndGlyphs" textLength="146" x="248" y="501.356">traced by ct, ct_middle</text><polygon fill="#000000" points="252,531.4219,242,535.4219,252,539.4219,248,535.4219" style="stroke: #000000; stroke-width: 1.0;"/><line style="stroke: #000000; stroke-width: 1.0;" x1="246" x2="519.5" y1="535.4219" y2="535.4219"/><text fill="#000000" font-family="sans-serif" font-size="13" lengthAdjust="spacingAndGlyphs" textLength="146" x="258" y="530.4888">traced by ct, ct_middle</text><polygon fill="#000000" points="65,560.5547,55,564.5547,65,568.5547,61,564.5547" style="stroke: #000000; stroke-width: 1.0;"/><line style="stroke: #000000; stroke-width: 1.0;" x1="59" x2="235" y1="564.5547" y2="564.5547"/><text fill="#000000" font-family="sans-serif" font-size="13" lengthAdjust="spacingAndGlyphs" textLength="153" x="71" y="559.6216">deactivate ct, ct_middle</text><polygon fill="#000000" points="219,589.6875,229,593.6875,219,597.6875,223,593.6875" style="stroke: #000000; stroke-width: 1.0;"/><line style="stroke: #000000; stroke-width: 1.0;" x1="54" x2="225" y1="593.6875" y2="593.6875"/><text fill="#000000" font-family="sans-serif" font-size="13" lengthAdjust="spacingAndGlyphs" textLength="137" x="61" y="588.7544">activate ct, ct_middle</text><polygon fill="#000000" points="399,618.8203,409,622.8203,399,626.8203,403,622.8203" style="stroke: #000000; stroke-width: 1.0;"/><line style="stroke: #000000; stroke-width: 1.0;" x1="241" x2="405" y1="622.8203" y2="622.8203"/><text fill="#000000" font-family="sans-serif" font-size="13" lengthAdjust="spacingAndGlyphs" textLength="146" x="248" y="617.8872">traced by ct, ct_middle</text><polygon fill="#000000" points="252,647.9531,242,651.9531,252,655.9531,248,651.9531" style="stroke: #000000; stroke-width: 1.0;"/><line style="stroke: #000000; stroke-width: 1.0;" x1="246" x2="415" y1="651.9531" y2="651.9531"/><text fill="#000000" font-family="sans-serif" font-size="13" lengthAdjust="spacingAndGlyphs" textLength="146" x="258" y="647.02">traced by ct, ct_middle</text><polygon fill="#000000" points="503.5,677.0859,513.5,681.0859,503.5,685.0859,507.5,681.0859" style="stroke: #000000; stroke-width: 1.0;"/><line style="stroke: #000000; stroke-width: 1.0;" x1="241" x2="509.5" y1="681.0859" y2="681.0859"/><text fill="#000000" font-family="sans-serif" font-size="13" lengthAdjust="spacingAndGlyphs" textLength="146" x="248" y="676.1528">traced by ct, ct_middle</text><polygon fill="#000000" points="252,706.2188,242,710.2188,252,714.2188,248,710.2188" style="stroke: #000000; stroke-width: 1.0;"/><line style="stroke: #000000; stroke-width: 1.0;" x1="246" x2="519.5" y1="710.2188" y2="710.2188"/><text fill="#000000" font-family="sans-serif" font-size="13" lengthAdjust="spacingAndGlyphs" textLength="146" x="258" y="705.2856">traced by ct, ct_middle</text><polygon fill="#000000" points="65,735.3516,55,739.3516,65,743.3516,61,739.3516" style="stroke: #000000; stroke-width: 1.0;"/><line style="stroke: #000000; stroke-width: 1.0;" x1="59" x2="235" y1="739.3516" y2="739.3516"/><text fill="#000000" font-family="sans-serif" font-size="13" lengthAdjust="spacingAndGlyphs" textLength="153" x="71" y="734.4185">deactivate ct, ct_middle</text><polygon fill="#000000" points="219,764.4844,229,768.4844,219,772.4844,223,768.4844" style="stroke: #000000; stroke-width: 1.0;"/><line style="stroke: #000000; stroke-width: 1.0;" x1="54" x2="225" y1="768.4844" y2="768.4844"/><text fill="#000000" font-family="sans-serif" font-size="13" lengthAdjust="spacingAndGlyphs" textLength="118" x="61" y="763.5513">activate ct, ct_end</text><polygon fill="#000000" points="399,793.6172,409,797.6172,399,801.6172,403,797.6172" style="stroke: #000000; stroke-width: 1.0;"/><line style="stroke: #000000; stroke-width: 1.0;" x1="241" x2="405" y1="797.6172" y2="797.6172"/><text fill="#000000" font-family="sans-serif" font-size="13" lengthAdjust="spacingAndGlyphs" textLength="127" x="248" y="792.6841">traced by ct, ct_end</text><polygon fill="#000000" points="252,822.75,242,826.75,252,830.75,248,826.75" style="stroke: #000000; stroke-width: 1.0;"/><line style="stroke: #000000; stroke-width: 1.0;" x1="246" x2="415" y1="826.75" y2="826.75"/><text fill="#000000" font-family="sans-serif" font-size="13" lengthAdjust="spacingAndGlyphs" textLength="127" x="258" y="821.8169">traced by ct, ct_end</text><polygon fill="#000000" points="449,851.8828,459,855.8828,449,859.8828,453,855.8828" style="stroke: #000000; stroke-width: 1.0;"/><line style="stroke: #000000; stroke-width: 1.0;" x1="241" x2="455" y1="855.8828" y2="855.8828"/><text fill="#000000" font-family="sans-serif" font-size="13" lengthAdjust="spacingAndGlyphs" textLength="127" x="248" y="850.9497">traced by ct, ct_end</text><polygon fill="#000000" points="252,881.0156,242,885.0156,252,889.0156,248,885.0156" style="stroke: #000000; stroke-width: 1.0;"/><line style="stroke: #000000; stroke-width: 1.0;" x1="246" x2="465" y1="885.0156" y2="885.0156"/><text fill="#000000" font-family="sans-serif" font-size="13" lengthAdjust="spacingAndGlyphs" textLength="127" x="258" y="880.0825">traced by ct, ct_end</text><polygon fill="#000000" points="60,910.1484,50,914.1484,60,918.1484,56,914.1484" style="stroke: #000000; stroke-width: 1.0;"/><line style="stroke: #000000; stroke-width: 1.0;" x1="54" x2="235" y1="914.1484" y2="914.1484"/><text fill="#000000" font-family="sans-serif" font-size="13" lengthAdjust="spacingAndGlyphs" textLength="134" x="66" y="909.2153">deactivate ct, ct_end</text><!--
@startuml
skinparam backgroundColor #FFFFFF

skinparam sequence {
    ActorBorderColor DeepSkyBlue
    ArrowColor black
    
    LifeLineBorderColor DarkGray
    ParticipantBackgroundColor  LightGray
    ParticipantBorderColor black
    BoxBorderColor black
}


activate test_func

test_func->func : activate ct, ct_start

activate func 

func->foo : traced by ct, ct_start
activate foo
func<- foo : traced by ct, ct_start
deactivate foo

func->bar : traced by ct, ct_start
activate bar
func<-bar : traced by ct, ct_start
deactivate bar

test_func<-func : deactivate ct, ct_start

deactivate func


test_func->func : activate ct, ct_start
activate func 

func->foo : traced by ct, ct_start
activate foo
func<- foo : traced by ct, ct_start
deactivate foo

func->bar : traced by ct, ct_start
activate bar
func<-bar : traced by ct, ct_start
deactivate bar

test_func<-func : deactivate ct, ct_start
deactivate func



test_func->func : activate ct, ct_middle
activate func 

func->foo : traced by ct, ct_middle
activate foo
func<- foo : traced by ct, ct_middle
deactivate foo

func->bar2 : traced by ct, ct_middle
activate bar2
func<-bar2 : traced by ct, ct_middle
deactivate bar2

test_func<-func : deactivate ct, ct_middle
deactivate func


test_func->func : activate ct, ct_middle
activate func

func->foo : traced by ct, ct_middle
activate foo
func<- foo : traced by ct, ct_middle
deactivate foo

func->bar2 : traced by ct, ct_middle
activate bar2
func<-bar2 : traced by ct, ct_middle
deactivate bar2

test_func<-func : deactivate ct, ct_middle
deactivate func


test_func->func : activate ct, ct_end
activate func

func->foo : traced by ct, ct_end
activate foo
func<- foo : traced by ct, ct_end
deactivate foo

func->bar : traced by ct, ct_end
activate bar
func<-bar : traced by ct, ct_end
deactivate bar

test_func<-func : deactivate ct, ct_end
deactivate func


deactivate test_func
@enduml

PlantUML version 1.2017.13(Wed May 10 16:52:33 UTC 2017)
(GPL source distribution)
Java Runtime: Java(TM) SE Runtime Environment
JVM: Java HotSpot(TM) 64-Bit Server VM
Java Version: 1.7.0_25-b15
Operating System: Linux
Default Encoding: UTF-8
Language: en
Country: US
--></g></svg>